<?xml version="1.0" encoding="UTF-8"?>
<svg version="1.1" xmlns="http://www.w3.org/2000/svg" width="180" height="180">
<path d="M0 0 C59.4 0 118.8 0 180 0 C180 59.4 180 118.8 180 180 C120.6 180 61.2 180 0 180 C0 120.6 0 61.2 0 0 Z " fill="#20252A" transform="translate(0,0)"/>
<path d="M0 0 C1.10479706 -0.00960754 2.20959412 -0.01921509 3.34786987 -0.02911377 C4.54163239 -0.03336365 5.7353949 -0.03761353 6.96533203 -0.04199219 C8.19220734 -0.04769226 9.41908264 -0.05339233 10.68313599 -0.05926514 C13.28061052 -0.06871763 15.87809706 -0.0752501 18.47558594 -0.07910156 C22.45024503 -0.08881125 26.424388 -0.11983497 30.39892578 -0.15136719 C32.92105812 -0.1578968 35.44319417 -0.16314743 37.96533203 -0.16699219 C39.15504608 -0.17933899 40.34476013 -0.19168579 41.57052612 -0.20440674 C43.23717819 -0.19990509 43.23717819 -0.19990509 44.9375 -0.1953125 C45.91218231 -0.19895813 46.88686462 -0.20260376 47.89108276 -0.20635986 C52.68966413 0.44506358 55.81927853 3.02649361 58.84814453 6.66113281 C59.34830078 7.24894531 59.84845703 7.83675781 60.36376953 8.44238281 C62.65815023 11.63709012 62.73484829 14.53083277 62.77514648 18.33178711 C62.79439934 19.91439583 62.79439934 19.91439583 62.81404114 21.52897644 C62.82142807 22.66958023 62.828815 23.81018402 62.83642578 24.98535156 C62.84449753 26.16071976 62.85256927 27.33608795 62.86088562 28.54707336 C62.87472578 31.03779628 62.88544823 33.52853815 62.89331055 36.01928711 C62.91049812 39.81628721 62.95438381 43.61241099 62.99853516 47.40917969 C63.00866443 49.83039725 63.0171798 52.25162221 63.02392578 54.67285156 C63.04143387 55.8033342 63.05894196 56.93381683 63.07698059 58.09855652 C63.05720326 65.3375704 62.3183825 71.35714864 57.07978821 76.71366882 C52.92403881 80.29602087 50.52215364 81.28558353 45.14208984 81.33813477 C43.42956024 81.35738762 43.42956024 81.35738762 41.68243408 81.37702942 C40.44289978 81.38441635 39.20336548 81.39180328 37.92626953 81.39941406 C36.65595886 81.40748581 35.38564819 81.41555756 34.07684326 81.4238739 C31.38338565 81.43772608 28.69005091 81.44873876 25.99658203 81.45629883 C22.5554587 81.46734431 19.11498542 81.50172105 15.67409134 81.54147053 C12.38321542 81.57399359 9.09228167 81.57842108 5.80126953 81.58691406 C4.56983215 81.60442215 3.33839478 81.62193024 2.06964111 81.63996887 C-4.3759439 81.6236325 -8.55342039 81.60416837 -13.40185547 77.16113281 C-19.86713503 70.33667105 -19.71990335 63.11064311 -19.73779297 54.19238281 C-19.74444977 53.03871216 -19.75110657 51.8850415 -19.75796509 50.69641113 C-19.76806981 48.26230459 -19.77278278 45.82817046 -19.77246094 43.39404297 C-19.7768403 39.67401581 -19.81320221 35.95516951 -19.85107422 32.23535156 C-19.85694157 29.86686603 -19.86091151 27.49837487 -19.86279297 25.12988281 C-19.877164 24.02036255 -19.89153503 22.91084229 -19.90634155 21.7677002 C-19.86186703 14.24153364 -18.86936326 10.71812467 -13.58544922 5.29785156 C-13.00923828 4.81960937 -12.43302734 4.34136719 -11.83935547 3.84863281 C-11.26056641 3.3575 -10.68177734 2.86636719 -10.08544922 2.36035156 C-6.8308991 0.04214533 -3.85958519 0.02708201 0 0 Z " fill="#1B3A44" transform="translate(68.40185546875,24.8388671875)"/>
<path d="M0 0 C8.49829514 4.74876738 13.6205425 10.20841648 16.90625 19.4140625 C18.31718086 24.97380195 18.28114266 29.88399661 16.4375 35.3125 C12.78603294 40.54626945 8.72129939 43.46030015 2.5625 45 C1.87800781 45.07992187 1.19351563 45.15984375 0.48828125 45.2421875 C-8.38045454 46.44423103 -15.04503074 51.27806026 -22.4375 56 C-25.52923752 57.54586876 -28.03179552 57.29359521 -31.4375 57 C-34.34552534 54.84778935 -35.32334136 53.64957341 -35.95507812 50.05493164 C-35.95958984 48.93465576 -35.96410156 47.81437988 -35.96875 46.66015625 C-35.97390625 45.43232422 -35.9790625 44.20449219 -35.984375 42.93945312 C-35.96890625 41.66005859 -35.9534375 40.38066406 -35.9375 39.0625 C-35.95296875 37.78697266 -35.9684375 36.51144531 -35.984375 35.19726562 C-35.97664063 33.35358398 -35.97664063 33.35358398 -35.96875 31.47265625 C-35.96423828 30.35125244 -35.95972656 29.22984863 -35.95507812 28.07446289 C-35.32461031 24.32942458 -34.11803876 22.65086602 -31.4375 20 C-24.62163987 18.5290741 -19.78793181 22.25064559 -14.25 25.75 C-13.36119141 26.28882812 -12.47238281 26.82765625 -11.55664062 27.3828125 C-7.37702774 29.95778062 -3.83130429 32.42046513 -0.4375 36 C2.40455088 31.26324853 3.51636492 27.41968706 2.5625 22 C0.49798978 17.70581873 -2.03223842 14.92892643 -6.2890625 12.6796875 C-10.56401141 11.32724912 -15.01123978 11.71185286 -19.4375 12 C-17.03358072 14.40391928 -15.92351277 14.39036094 -12.625 14.875 C-8.25169288 15.6712958 -5.60577649 16.72952104 -2.4375 20 C-1.08310332 22.70879335 -1.37248549 25.00933268 -1.4375 28 C-2.7575 27.67 -4.0775 27.34 -5.4375 27 C-5.7675 25.35 -6.0975 23.7 -6.4375 22 C-7.23414063 21.89042969 -8.03078125 21.78085937 -8.8515625 21.66796875 C-17.80683386 20.32794639 -17.80683386 20.32794639 -21.5625 18.375 C-25.86837694 16.31566755 -29.76057509 16.11337916 -34.4375 17 C-38.37706616 18.90834031 -40.80758574 21.26279252 -42.30859375 25.40234375 C-42.81312581 27.60488717 -43.1930358 29.7549206 -43.4375 32 C-45.375 32.5625 -45.375 32.5625 -47.4375 33 C-48.4375 32 -48.4375 32 -48.75 28.0625 C-48.59421051 19.12584812 -44.70497044 12.35605358 -38.65234375 5.9765625 C-27.94300611 -3.58062418 -13.03249457 -6.46532538 0 0 Z " fill="#2DA4C8" transform="translate(105.4375,36)"/>
<path d="M0 0 C1.43388755 0.81037747 2.85260238 1.64751424 4.26757812 2.49047852 C2.94757813 3.81047852 1.62757812 5.13047852 0.26757812 6.49047852 C-0.27511719 6.21333008 -0.8178125 5.93618164 -1.37695312 5.65063477 C-2.45009766 5.10729492 -2.45009766 5.10729492 -3.54492188 4.55297852 C-4.60646484 4.01350586 -4.60646484 4.01350586 -5.68945312 3.46313477 C-12.38792943 0.27399404 -20.80823462 0.19903697 -27.80664062 2.50219727 C-31.82686586 4.45655493 -34.21930724 5.72080656 -36.73242188 9.49047852 C-32.23471993 8.60551401 -27.96079964 7.66424406 -23.73242188 5.86547852 C-17.98506303 3.6214898 -12.84865659 3.59943232 -7.16992188 5.99047852 C-6.36554688 6.48547852 -5.56117187 6.98047852 -4.73242188 7.49047852 C-5.06242187 8.81047852 -5.39242187 10.13047852 -5.73242188 11.49047852 C-6.43753906 11.32676758 -7.14265625 11.16305664 -7.86914062 10.99438477 C-10.82900876 10.47348028 -13.5430346 10.3918112 -16.54492188 10.42797852 C-18.00865234 10.44151367 -18.00865234 10.44151367 -19.50195312 10.45532227 C-20.23800781 10.46692383 -20.9740625 10.47852539 -21.73242188 10.49047852 C-19.3285026 12.89439779 -18.21843465 12.88083946 -14.91992188 13.36547852 C-10.54661476 14.16177432 -7.90069837 15.21999955 -4.73242188 18.49047852 C-3.3780252 21.19927187 -3.66740737 23.49981119 -3.73242188 26.49047852 C-5.05242187 26.16047852 -6.37242188 25.83047852 -7.73242188 25.49047852 C-8.06242187 23.84047852 -8.39242187 22.19047852 -8.73242188 20.49047852 C-9.5290625 20.3809082 -10.32570312 20.27133789 -11.14648438 20.15844727 C-20.10175573 18.81842491 -20.10175573 18.81842491 -23.85742188 16.86547852 C-28.16329881 14.80614607 -32.05549697 14.60385768 -36.73242188 15.49047852 C-40.67198804 17.39881882 -43.10250762 19.75327104 -44.60351562 23.89282227 C-45.10804769 26.09536568 -45.48795767 28.24539912 -45.73242188 30.49047852 C-47.66992188 31.05297852 -47.66992188 31.05297852 -49.73242188 31.49047852 C-50.73242188 30.49047852 -50.73242188 30.49047852 -51.04492188 26.55297852 C-50.88913238 17.61632664 -46.99989232 10.84653209 -40.94726562 4.46704102 C-28.98231581 -6.21067434 -13.81958196 -7.51103725 0 0 Z " fill="#38DBAE" transform="translate(107.732421875,37.509521484375)"/>
<path d="M0 0 C1.10479706 -0.00960754 2.20959412 -0.01921509 3.34786987 -0.02911377 C4.54163239 -0.03336365 5.7353949 -0.03761353 6.96533203 -0.04199219 C8.19220734 -0.04769226 9.41908264 -0.05339233 10.68313599 -0.05926514 C13.28061052 -0.06871763 15.87809706 -0.0752501 18.47558594 -0.07910156 C22.45024503 -0.08881125 26.424388 -0.11983497 30.39892578 -0.15136719 C32.92105812 -0.1578968 35.44319417 -0.16314743 37.96533203 -0.16699219 C39.15504608 -0.17933899 40.34476013 -0.19168579 41.57052612 -0.20440674 C43.23717819 -0.19990509 43.23717819 -0.19990509 44.9375 -0.1953125 C45.91218231 -0.19895813 46.88686462 -0.20260376 47.89108276 -0.20635986 C52.68966413 0.44506358 55.81927853 3.02649361 58.84814453 6.66113281 C59.34830078 7.24894531 59.84845703 7.83675781 60.36376953 8.44238281 C62.65815023 11.63709012 62.73484829 14.53083277 62.77514648 18.33178711 C62.79439934 19.91439583 62.79439934 19.91439583 62.81404114 21.52897644 C62.82142807 22.66958023 62.828815 23.81018402 62.83642578 24.98535156 C62.84449753 26.16071976 62.85256927 27.33608795 62.86088562 28.54707336 C62.87472578 31.03779628 62.88544823 33.52853815 62.89331055 36.01928711 C62.91049812 39.81628721 62.95438381 43.61241099 62.99853516 47.40917969 C63.00866443 49.83039725 63.0171798 52.25162221 63.02392578 54.67285156 C63.04143387 55.8033342 63.05894196 56.93381683 63.07698059 58.09855652 C63.05720326 65.3375704 62.3183825 71.35714864 57.07978821 76.71366882 C52.92403881 80.29602087 50.52215364 81.28558353 45.14208984 81.33813477 C43.42956024 81.35738762 43.42956024 81.35738762 41.68243408 81.37702942 C40.44289978 81.38441635 39.20336548 81.39180328 37.92626953 81.39941406 C36.65595886 81.40748581 35.38564819 81.41555756 34.07684326 81.4238739 C31.38338565 81.43772608 28.69005091 81.44873876 25.99658203 81.45629883 C22.5554587 81.46734431 19.11498542 81.50172105 15.67409134 81.54147053 C12.38321542 81.57399359 9.09228167 81.57842108 5.80126953 81.58691406 C4.56983215 81.60442215 3.33839478 81.62193024 2.06964111 81.63996887 C-4.3759439 81.6236325 -8.55342039 81.60416837 -13.40185547 77.16113281 C-19.86713503 70.33667105 -19.71990335 63.11064311 -19.73779297 54.19238281 C-19.74444977 53.03871216 -19.75110657 51.8850415 -19.75796509 50.69641113 C-19.76806981 48.26230459 -19.77278278 45.82817046 -19.77246094 43.39404297 C-19.7768403 39.67401581 -19.81320221 35.95516951 -19.85107422 32.23535156 C-19.85694157 29.86686603 -19.86091151 27.49837487 -19.86279297 25.12988281 C-19.877164 24.02036255 -19.89153503 22.91084229 -19.90634155 21.7677002 C-19.86186703 14.24153364 -18.86936326 10.71812467 -13.58544922 5.29785156 C-13.00923828 4.81960937 -12.43302734 4.34136719 -11.83935547 3.84863281 C-11.26056641 3.3575 -10.68177734 2.86636719 -10.08544922 2.36035156 C-6.8308991 0.04214533 -3.85958519 0.02708201 0 0 Z M-14.40185547 8.16113281 C-17.57435143 14.83209205 -17.86922917 20.71751288 -17.87060547 28.03613281 C-17.87821899 29.16003418 -17.88583252 30.28393555 -17.89367676 31.44189453 C-17.90444035 33.80857124 -17.90734617 36.17529531 -17.90283203 38.54199219 C-17.90185841 42.15022222 -17.94355411 45.75633349 -17.98779297 49.36425781 C-17.99299966 51.67154507 -17.99568817 53.97883968 -17.99560547 56.28613281 C-18.02019836 57.89270752 -18.02019836 57.89270752 -18.04528809 59.53173828 C-17.98390251 66.22515757 -17.1851124 71.22609697 -12.40185547 76.16113281 C-6.48083317 80.90503556 0.18993551 80.74744243 7.47314453 80.69238281 C9.15899658 80.69812317 9.15899658 80.69812317 10.87890625 80.70397949 C13.24561463 80.70669097 15.61235337 80.69938365 17.97900391 80.68261719 C21.58710998 80.66119832 25.19322488 80.68244673 28.80126953 80.70800781 C31.10856556 80.7053644 33.41586036 80.70023916 35.72314453 80.69238281 C36.79419434 80.70047974 37.86524414 80.70857666 38.96875 80.71691895 C46.20911427 80.62694618 51.94166662 79.88646416 57.176651 74.55290222 C61.49173661 68.74695123 61.27814975 62.73116259 61.15673828 55.74316406 C61.15440689 54.56775558 61.1520755 53.39234711 61.14967346 52.18132019 C61.13996678 49.70780127 61.11825142 47.23430354 61.08520508 44.76098633 C61.03566784 40.97541402 61.02371292 37.19114116 61.01806641 33.40527344 C61.0039842 30.99705648 60.98778117 28.5888508 60.96923828 26.18066406 C60.96387558 25.05038284 60.95851288 23.92010162 60.95298767 22.75556946 C60.93700027 21.70064804 60.92101288 20.64572662 60.90454102 19.55883789 C60.89390121 18.63476639 60.88326141 17.71069489 60.87229919 16.75862122 C60.26774104 11.0307128 57.861578 7.91701468 53.59814453 4.16113281 C44.94169291 -0.8461929 32.37793937 0.97492593 22.67553711 0.97583008 C20.03824925 0.97363498 17.40137484 0.95540096 14.76416016 0.93652344 C13.0616876 0.93358999 11.3592131 0.93160487 9.65673828 0.93066406 C8.881483 0.92347855 8.10622772 0.91629303 7.30747986 0.90888977 C-1.04709968 0.94326011 -8.51811202 1.71703285 -14.40185547 8.16113281 Z " fill="#2E687D" transform="translate(68.40185546875,24.8388671875)"/>
<path d="M0 0 C5.6542155 0.94236925 7.96576937 1.89614763 12.625 4.875 C13.73101562 5.57367188 14.83703125 6.27234375 15.9765625 6.9921875 C21.18716755 10.45246011 21.18716755 10.45246011 23 12 C23 12.66 23 13.32 23 14 C21.21166992 15.32861328 21.21166992 15.32861328 18.73046875 16.8203125 C17.84166016 17.35527344 16.95285156 17.89023438 16.03710938 18.44140625 C15.09673828 18.99699219 14.15636719 19.55257812 13.1875 20.125 C12.25873047 20.68832031 11.32996094 21.25164062 10.37304688 21.83203125 C3.38438257 26 3.38438257 26 0 26 C0 17.42 0 8.84 0 0 Z " fill="#19333F" transform="translate(76,62)"/>
<path d="M0 0 C6.70716426 -0.55482057 11.7806603 -0.55568126 17.33984375 3.51953125 C20.41482535 6.26169131 22.61570972 8.7958523 23.33984375 12.94921875 C23.56335399 17.64293373 22.55154753 20.97640583 20 25 C19.01 25.495 19.01 25.495 18 26 C17.03513672 24.94232422 17.03513672 24.94232422 16.05078125 23.86328125 C12.51348978 20.33594347 8.41828559 17.80422866 4.1875 15.1875 C3.41857422 14.68541016 2.64964844 14.18332031 1.85742188 13.66601562 C-3.39644184 10.40729003 -6.82391894 9.41549062 -13 10 C-13 8.68 -13 7.36 -13 6 C-13.66 5.67 -14.32 5.34 -15 5 C-8.64815983 4.66106782 -4.69266516 4.97198662 1 8 C2.53629821 8.19439977 4.07971622 8.33699374 5.625 8.4375 C8.86347251 8.70464672 9.80839183 8.85629387 12.5 10.875 C14 13 14 13 15 16 C15.99 16.33 16.98 16.66 18 17 C17.08450839 11.13129313 17.08450839 11.13129313 13.5 6.625 C9.08717164 4.57618683 4.78955253 3.71937943 0 3 C0 2.01 0 1.02 0 0 Z " fill="#1C404F" transform="translate(86,47)"/>
<path d="M0 0 C6.34338011 4.14336389 11.98500865 8.76757889 14.02734375 16.32421875 C14.71252385 21.80565952 15.00434049 26.51496552 12.33984375 31.44921875 C9.96367998 33.37583803 7.94436618 34.43290634 5.02734375 35.32421875 C5.33671875 34.56109375 5.64609375 33.79796875 5.96484375 33.01171875 C8.52541932 26.53496879 9.43002085 19.70400642 7.26171875 12.93359375 C4.11201415 7.12216695 -0.80356954 4.32824841 -6.97265625 2.32421875 C-13.19005496 1.12937852 -17.80768333 2.85782011 -23.46484375 5.3671875 C-27.28944011 6.82672973 -30.90287847 7.06165244 -34.97265625 7.32421875 C-27.07724698 -3.8821686 -12.14660145 -6.44652032 0 0 Z " fill="#1B3951" transform="translate(103.97265625,40.67578125)"/>
<path d="M0 0 C2.475 0.495 2.475 0.495 5 1 C5.99 4.3 6.98 7.6 8 11 C9.32 7.37 10.64 3.74 12 0 C13.65 0 15.3 0 17 0 C20 6.5 20 6.5 20 11 C20.66 11 21.32 11 22 11 C22.13277344 10.37351562 22.26554687 9.74703125 22.40234375 9.1015625 C22.57894531 8.28429687 22.75554687 7.46703125 22.9375 6.625 C23.19853516 5.40683594 23.19853516 5.40683594 23.46484375 4.1640625 C24 2 24 2 25 0 C26.65 0 28.3 0 30 0 C28.02 5.94 26.04 11.88 24 18 C22.35 18 20.7 18 19 18 C17.68 15.03 16.36 12.06 15 9 C13.00902154 11.98646769 12.05875074 14.59687262 11 18 C9.02 18 7.04 18 5 18 C4.16112944 15.56427941 3.32873471 13.12666783 2.5 10.6875 C2.14228516 9.65206055 2.14228516 9.65206055 1.77734375 8.59570312 C0.76791737 5.61068511 0 3.17341086 0 0 Z " fill="#2BB2B9" transform="translate(142,117)"/>
<path d="M0 0 C-0.33 1.32 -0.66 2.64 -1 4 C-2.05767578 3.75443359 -2.05767578 3.75443359 -3.13671875 3.50390625 C-6.09658688 2.98300176 -8.81061273 2.90133268 -11.8125 2.9375 C-12.78832031 2.94652344 -13.76414062 2.95554687 -14.76953125 2.96484375 C-15.50558594 2.97644531 -16.24164063 2.98804688 -17 3 C-14.59608072 5.40391928 -13.48601277 5.39036094 -10.1875 5.875 C-5.81419288 6.6712958 -3.16827649 7.72952104 0 11 C1.35439668 13.70879335 1.06501451 16.00933268 1 19 C-0.32 18.67 -1.64 18.34 -3 18 C-3.495 15.525 -3.495 15.525 -4 13 C-4.79664062 12.89042969 -5.59328125 12.78085937 -6.4140625 12.66796875 C-12.21922285 11.79931337 -16.79103773 10.78618912 -22 8 C-25.73771834 7.2863276 -25.73771834 7.2863276 -29 7 C-27.614012 3.64933828 -26.2243823 2.16628149 -23.125 0.3125 C-22.44695312 -0.10386719 -21.76890625 -0.52023438 -21.0703125 -0.94921875 C-14.17017733 -4.45136283 -6.5235615 -4.01449939 0 0 Z " fill="#2FBCB6" transform="translate(103,45)"/>
<path d="M0 0 C5 0 5 0 7.01953125 1.96875 C7.61121094 2.8040625 8.20289063 3.639375 8.8125 4.5 C9.41707031 5.3353125 10.02164063 6.170625 10.64453125 7.03125 C11.09183594 7.6809375 11.53914063 8.330625 12 9 C12.33 6.03 12.66 3.06 13 0 C14.65 0 16.3 0 18 0 C18 5.94 18 11.88 18 18 C13 18 13 18 10.98046875 16.25 C10.09294922 15.13625 10.09294922 15.13625 9.1875 14 C8.58292969 13.2575 7.97835937 12.515 7.35546875 11.75 C6.90816406 11.1725 6.46085937 10.595 6 10 C5.67 12.97 5.34 15.94 5 19 C3.35 19 1.7 19 0 19 C0 12.73 0 6.46 0 0 Z " fill="#E6E6E6" transform="translate(48,117)"/>
<path d="M0 0 C4.12381732 3.91124942 6.81141147 7.31130228 7.41195679 13.1443634 C7.41958038 14.06843491 7.42720398 14.99250641 7.43505859 15.94458008 C7.45419815 17.5269622 7.45419815 17.5269622 7.47372437 19.14131165 C7.47595001 20.27159286 7.47817566 21.40187408 7.48046875 22.56640625 C7.48712555 23.73894455 7.49378235 24.91148285 7.50064087 26.11955261 C7.51075733 28.59832187 7.5154582 31.07711832 7.51513672 33.5559082 C7.51950339 37.33525853 7.55581817 41.11343479 7.59375 44.89257812 C7.59961972 47.30468352 7.60358807 49.71679445 7.60546875 52.12890625 C7.61983978 53.25311478 7.63421082 54.3773233 7.64901733 55.53559875 C7.60703096 62.79831389 6.74702214 68.58517834 1.73251343 74.09968567 C-1.25848432 76.81463228 -3.83259373 78.19191544 -7.85546875 78.546875 C-7.85546875 77.886875 -7.85546875 77.226875 -7.85546875 76.546875 C-7.324375 76.33933594 -6.79328125 76.13179688 -6.24609375 75.91796875 C-5.5396875 75.60988281 -4.83328125 75.30179687 -4.10546875 74.984375 C-3.409375 74.69433594 -2.71328125 74.40429688 -1.99609375 74.10546875 C1.15221072 71.81318137 2.80255277 69.13702553 4.14453125 65.546875 C4.70105628 61.43487478 4.6581999 57.37052172 4.60546875 53.2265625 C4.60455231 52.04973907 4.60363586 50.87291565 4.60269165 49.66043091 C4.596667 47.18096872 4.58095546 44.70151342 4.55615234 42.22216797 C4.51958822 38.42778721 4.51513367 34.63438254 4.515625 30.83984375 C4.50579527 28.4270749 4.4941389 26.01431265 4.48046875 23.6015625 C4.4782431 22.46814423 4.47601746 21.33472595 4.47372437 20.16696167 C4.46096466 19.10881256 4.44820496 18.05066345 4.43505859 16.96044922 C4.427435 16.03336151 4.4198114 15.1062738 4.41195679 14.15109253 C3.99551664 10.09575532 2.59508524 7.21493781 0.33203125 3.859375 C-4.5667394 0.30536492 -9.93609974 0.12754517 -15.85546875 -0.453125 C-15.85546875 -0.783125 -15.85546875 -1.113125 -15.85546875 -1.453125 C-4.17065965 -3.26628503 -4.17065965 -3.26628503 0 0 Z " fill="#2B5780" transform="translate(123.85546875,27.453125)"/>
<path d="M0 0 C4.62 0 9.24 0 14 0 C14 0.99 14 1.98 14 3 C10.7 3 7.4 3 4 3 C4 4.32 4 5.64 4 7 C6.97 7 9.94 7 13 7 C13 8.32 13 9.64 13 11 C10.03 11 7.06 11 4 11 C4 12.32 4 13.64 4 15 C7.3 15 10.6 15 14 15 C14 15.99 14 16.98 14 18 C9.38 18 4.76 18 0 18 C0 12.06 0 6.12 0 0 Z " fill="#2EBBB4" transform="translate(124,117)"/>
<path d="M0 0 C0.90105469 0.02707031 1.80210938 0.05414063 2.73046875 0.08203125 C3.76107422 0.13423828 3.76107422 0.13423828 4.8125 0.1875 C4.8125 1.5075 4.8125 2.8275 4.8125 4.1875 C2.1725 4.1875 -0.4675 4.1875 -3.1875 4.1875 C-3.1875 4.8475 -3.1875 5.5075 -3.1875 6.1875 C-2.54941406 6.39246094 -1.91132813 6.59742187 -1.25390625 6.80859375 C-0.42761719 7.07800781 0.39867187 7.34742187 1.25 7.625 C2.07371094 7.89183594 2.89742187 8.15867187 3.74609375 8.43359375 C5.8125 9.1875 5.8125 9.1875 6.8125 10.1875 C6.625 13.625 6.625 13.625 5.8125 17.1875 C2.80719328 19.32267337 0.63377755 19.33768788 -2.9375 18.8125 C-3.73671875 18.70164063 -4.5359375 18.59078125 -5.359375 18.4765625 C-6.26429687 18.33347656 -6.26429687 18.33347656 -7.1875 18.1875 C-7.5175 16.8675 -7.8475 15.5475 -8.1875 14.1875 C-4.8875 14.1875 -1.5875 14.1875 1.8125 14.1875 C2.1425 13.5275 2.4725 12.8675 2.8125 12.1875 C2.18601562 12.06632813 1.55953125 11.94515625 0.9140625 11.8203125 C-0.31183594 11.56894531 -0.31183594 11.56894531 -1.5625 11.3125 C-2.37460938 11.15007812 -3.18671875 10.98765625 -4.0234375 10.8203125 C-6.1875 10.1875 -6.1875 10.1875 -8.1875 8.1875 C-8.54441675 5.40354938 -8.66698435 3.84874965 -6.9921875 1.5390625 C-4.56175893 -0.28112859 -3.00025214 -0.11689294 0 0 Z " fill="#EFEFEF" transform="translate(17.1875,116.8125)"/>
<path d="M0 0 C2.66070912 0.58174827 3.60705868 1.42347877 5.3046875 3.50390625 C3.3246875 4.49390625 3.3246875 4.49390625 1.3046875 5.50390625 C0.9746875 5.17390625 0.6446875 4.84390625 0.3046875 4.50390625 C-2.15341248 4.25382895 -2.15341248 4.25382895 -4.6953125 4.50390625 C-7.01094337 6.38890896 -7.01094337 6.38890896 -6.9453125 9.50390625 C-7.01094337 12.61890354 -7.01094337 12.61890354 -4.6953125 14.50390625 C-2.27885468 14.67078073 -2.27885468 14.67078073 0.3046875 14.50390625 C1.6246875 14.50390625 2.9446875 14.50390625 4.3046875 14.50390625 C4.3046875 15.49390625 4.3046875 16.48390625 4.3046875 17.50390625 C0.87661168 19.61349137 -1.70354831 20.06275324 -5.6953125 19.50390625 C-8.62015117 17.67842689 -11.12960455 15.63532214 -12.6953125 12.50390625 C-13.24368335 8.48252003 -12.8137273 6.71705289 -10.8203125 3.12890625 C-7.69675905 -0.29084624 -4.41278904 -0.10059549 0 0 Z " fill="#EDEEEE" transform="translate(82.6953125,116.49609375)"/>
<path d="M0 0 C-0.66 1.32 -1.32 2.64 -2 4 C-2.804375 3.67 -3.60875 3.34 -4.4375 3 C-12.0432308 0.86505802 -17.35923047 1.87897684 -24.4921875 5.04296875 C-28.31678386 6.50251098 -31.93022222 6.73743369 -36 7 C-27.60693106 -4.91274301 -12.70599486 -6.09887753 0 0 Z " fill="#20646A" transform="translate(105,41)"/>
<path d="M0 0 C1.65 0 3.3 0 5 0 C6.65 3.63 8.3 7.26 10 11 C11.98 7.37 13.96 3.74 16 0 C17.32 0 18.64 0 20 0 C18.06375702 6.20477864 15.74390859 12.10825719 13 18 C11.35 18 9.7 18 8 18 C6.85214624 15.56343315 5.70664598 13.12580719 4.5625 10.6875 C4.23701172 9.99720703 3.91152344 9.30691406 3.57617188 8.59570312 C2.24512515 5.75522197 0.99292066 2.97876197 0 0 Z " fill="#29AABC" transform="translate(90,117)"/>
<path d="M0 0 C2.50758443 0.38453239 3.7631934 0.76782532 5.59765625 2.56640625 C11.55343567 10.68214833 13.55864517 16.90300586 13 27 C10 27 10 27 8 26 C7.76171875 24.03125 7.76171875 24.03125 7.6875 21.5 C7.19554171 15.26554679 4.87875795 9.76521066 0.31640625 5.3828125 C-0.11800781 4.92648438 -0.55242187 4.47015625 -1 4 C-0.6875 1.8125 -0.6875 1.8125 0 0 Z " fill="#2B8DCF" transform="translate(110,41)"/>
<path d="M0 0 C2.35546875 -0.1875 2.35546875 -0.1875 5 0 C7.3125 3 7.3125 3 9 6 C11.87420123 3.28395285 11.87420123 3.28395285 14 0 C15.65 0 17.3 0 19 0 C18.57847656 0.6290625 18.15695313 1.258125 17.72265625 1.90625 C14.19374867 7.41964913 12.24309615 11.43640403 12 18 C10.35 18 8.7 18 7 18 C6.95875 16.88625 6.9175 15.7725 6.875 14.625 C6.21426019 8.9528029 3.11879673 4.65435108 0 0 Z " fill="#EDEDED" transform="translate(26,117)"/>
<path d="M0 0 C11.45597009 -1.0968482 18.33485882 1.24204355 28 7 C26.68 8.32 25.36 9.64 24 11 C22.948125 10.38125 21.89625 9.7625 20.8125 9.125 C15.19273383 6.26955125 9.19428758 5.71763088 3 5 C3 4.67 3 4.34 3 4 C4.98 4 6.96 4 9 4 C9 3.34 9 2.68 9 2 C6.03 1.67 3.06 1.34 0 1 C0 0.67 0 0.34 0 0 Z " fill="#2BBCB8" transform="translate(84,33)"/>
<path d="M0 0 C4.25219775 0.47246642 6.37314725 2.77272377 9 6 C8.8125 8.3125 8.8125 8.3125 8 10 C4.32589215 11.17571451 0.83070817 11.07366746 -3 11 C-2.44894091 7.0507432 -1.61064629 3.65079826 0 0 Z " fill="#282E35" transform="translate(14,15)"/>
<path d="M0 0 C17.16 0 34.32 0 52 0 C47.6934945 3.22987913 45.24182068 4.05426315 40 4 C37.8125 3 37.8125 3 36 2 C33.44063441 2.32852082 33.44063441 2.32852082 31 3 C28 3 28 3 26 2 C24.04225931 1.84621148 22.07982648 1.75028537 20.1171875 1.68359375 C18.95058594 1.64169922 17.78398438 1.59980469 16.58203125 1.55664062 C15.35871094 1.51732422 14.13539062 1.47800781 12.875 1.4375 C11.64394531 1.39431641 10.41289063 1.35113281 9.14453125 1.30664062 C6.09647147 1.20031296 3.0483281 1.09828219 0 1 C0 0.67 0 0.34 0 0 Z " fill="#244C63" transform="translate(64,106)"/>
<path d="M0 0 C1.06087326 0.00007553 2.12174652 0.00015106 3.21476746 0.00022888 C4.3585939 0.00539017 5.50242035 0.01055145 6.6809082 0.01586914 C8.43912651 0.01799156 8.43912651 0.01799156 10.23286438 0.02015686 C13.98249852 0.02576151 17.73207331 0.03831483 21.48168945 0.05102539 C24.02140213 0.05603979 26.56111575 0.0606028 29.10083008 0.06469727 C35.33197018 0.07573245 41.56307558 0.09247514 47.79418945 0.11352539 C47.79418945 0.44352539 47.79418945 0.77352539 47.79418945 1.11352539 C47.2297966 1.12161224 46.66540375 1.1296991 46.08390808 1.13803101 C40.16168272 1.22469209 34.23976869 1.32421522 28.31787109 1.4309082 C26.11349758 1.46897861 23.90906657 1.50386798 21.70458984 1.53540039 C18.51940484 1.58153115 15.33460826 1.63944222 12.1496582 1.69946289 C10.69271797 1.7167897 10.69271797 1.7167897 9.2063446 1.73446655 C-0.67167181 1.87516856 -0.67167181 1.87516856 -10.20581055 4.11352539 C-11.46894167 6.03685049 -11.46894167 6.03685049 -12.20581055 8.11352539 C-13.70581055 9.73852539 -13.70581055 9.73852539 -15.20581055 11.11352539 C-15.86581055 11.77352539 -16.52581055 12.43352539 -17.20581055 13.11352539 C-16.71908434 8.83623452 -15.62784706 7.09294023 -12.33081055 4.36352539 C-11.63213867 3.77055664 -10.9334668 3.17758789 -10.21362305 2.56665039 C-6.83956861 0.12472772 -4.03643386 -0.00958773 0 0 Z " fill="#2EA4A3" transform="translate(68.205810546875,24.886474609375)"/>
<path d="M0 0 C0.33 0.99 0.66 1.98 1 3 C0.69916504 3.56041992 0.39833008 4.12083984 0.08837891 4.69824219 C-1.47040171 7.99482892 -1.35687803 11.2485867 -1.4140625 14.828125 C-1.43342865 15.57713074 -1.4527948 16.32613647 -1.4727478 17.09783936 C-1.53235716 19.48177836 -1.57885354 21.86576614 -1.625 24.25 C-1.66319701 25.86981231 -1.70224975 27.48960468 -1.7421875 29.109375 C-1.83804313 33.07275406 -1.92214246 37.03622819 -2 41 C-2.33 41 -2.66 41 -3 41 C-4.21085893 33.38611907 -4.18370471 25.82183833 -4.1875 18.125 C-4.19965992 16.78124808 -4.21202808 15.43749804 -4.22460938 14.09375 C-4.22654297 12.82789063 -4.22847656 11.56203125 -4.23046875 10.2578125 C-4.23457764 9.1042627 -4.23868652 7.95071289 -4.24291992 6.76220703 C-3.9277819 3.17881852 -2.47879096 2.47879096 0 0 Z " fill="#2B8978" transform="translate(53,34)"/>
<path d="M0 0 C8.00945568 -0.30372936 14.69065285 -0.50848663 22 3 C21.34 4.32 20.68 5.64 20 7 C18.7625 6.5359375 18.7625 6.5359375 17.5 6.0625 C13.60873845 4.88122417 10.03833047 4.41775832 6 4 C6 3.67 6 3.34 6 3 C3.69 2.67 1.38 2.34 -1 2 C-0.67 1.34 -0.34 0.68 0 0 Z " fill="#1C5361" transform="translate(83,38)"/>
<path d="M0 0 C1.65 0 3.3 0 5 0 C7.09230769 4.43076923 7.09230769 4.43076923 6.625 7.3125 C6.41875 7.869375 6.2125 8.42625 6 9 C4.68 9 3.36 9 2 9 C1.01 10.485 1.01 10.485 0 12 C-0.99 11.67 -1.98 11.34 -3 11 C-2.01 7.37 -1.02 3.74 0 0 Z " fill="#33CDAD" transform="translate(154,117)"/>
<path d="M0 0 C1.32 0 2.64 0 4 0 C4 5.94 4 11.88 4 18 C2.68 18 1.36 18 0 18 C0 12.06 0 6.12 0 0 Z " fill="#34D4B6" transform="translate(114,117)"/>
<path d="M0 0 C6.02396214 5.88928006 6.02396214 5.88928006 6.22290039 9.50439453 C6.21766357 10.33181152 6.21242676 11.15922852 6.20703125 12.01171875 C6.20380859 12.90761719 6.20058594 13.80351563 6.19726562 14.7265625 C6.18888672 15.66371094 6.18050781 16.60085937 6.171875 17.56640625 C6.16736328 18.51128906 6.16285156 19.45617187 6.15820312 20.4296875 C6.14639857 22.76699012 6.12993259 25.10416686 6.109375 27.44140625 C5.779375 27.44140625 5.449375 27.44140625 5.109375 27.44140625 C5.06039062 26.34441406 5.01140625 25.24742188 4.9609375 24.1171875 C4.88586909 22.662737 4.81032303 21.20831109 4.734375 19.75390625 C4.7034375 19.03267578 4.6725 18.31144531 4.640625 17.56835938 C4.34458263 12.16558611 3.36984962 8.31038586 0.296875 3.75390625 C-4.60189565 0.19989617 -9.97125599 0.02207642 -15.890625 -0.55859375 C-15.890625 -0.88859375 -15.890625 -1.21859375 -15.890625 -1.55859375 C-4.10838629 -3.38687217 -4.10838629 -3.38687217 0 0 Z " fill="#296385" transform="translate(123.890625,27.55859375)"/>
<path d="M0 0 C3.31360491 0.24545222 4.35557375 1.32465429 6.875 3.625 C9 7 9 7 8.3125 10.875 C7.6628125 12.421875 7.6628125 12.421875 7 14 C6.608125 13.46375 6.21625 12.9275 5.8125 12.375 C4.13664716 10.10265664 4.13664716 10.10265664 2.65234375 8.5390625 C1.25 7 1.25 7 -1 4 C-0.8125 1.625 -0.8125 1.625 0 0 Z " fill="#2CA6CB" transform="translate(110,41)"/>
<path d="M0 0 C2 2 2 2 2.265625 4.71484375 C2.26046875 5.77832031 2.2553125 6.84179688 2.25 7.9375 C2.25773437 9.52884766 2.25773437 9.52884766 2.265625 11.15234375 C2 14 2 14 0 17 C-0.33 16.34 -0.66 15.68 -1 15 C-1.99 15.66 -2.98 16.32 -4 17 C-3.34 12.71 -2.68 8.42 -2 4 C-1.34 4 -0.68 4 0 4 C0 2.68 0 1.36 0 0 Z " fill="#2E94D0" transform="translate(111,54)"/>
<path d="M0 0 C0.86625 0.2784375 0.86625 0.2784375 1.75 0.5625 C4.20692525 1.04023546 5.64397534 0.75729364 8 0 C8 0.99 8 1.98 8 3 C8.99 2.01 9.98 1.02 11 0 C11.99 0.33 12.98 0.66 14 1 C13.67 2.65 13.34 4.3 13 6 C10.36 6 7.72 6 5 6 C4.67 5.34 4.34 4.68 4 4 C2.35 4.33 0.7 4.66 -1 5 C-0.67 3.35 -0.34 1.7 0 0 Z " fill="#5D5E61" transform="translate(78,142)"/>
<path d="M0 0 C0.33 0 0.66 0 1 0 C1.33 1.65 1.66 3.3 2 5 C2.66 4.67 3.32 4.34 4 4 C4.34338883 7.6914299 4.27811415 9.54677695 2.3125 12.75 C-0.06787399 15.06603956 -1.85123032 16.03787593 -5 17 C-3.16504854 12.2815534 -3.16504854 12.2815534 -1.9375 10.1875 C-0.51539981 6.86926622 -0.35851435 3.58514351 0 0 Z " fill="#192E44" transform="translate(114,59)"/>
<path d="M0 0 C0.061875 0.61875 0.12375 1.2375 0.1875 1.875 C0.828919 4.27761141 0.828919 4.27761141 3.5625 5.25 C4.366875 5.4975 5.17125 5.745 6 6 C5.67 7.65 5.34 9.3 5 11 C3.35 11 1.7 11 0 11 C-0.99 8.03 -1.98 5.06 -3 2 C-2.01 1.34 -1.02 0.68 0 0 Z " fill="#28A8BA" transform="translate(161,124)"/>
<path d="M0 0 C5.61 0 11.22 0 17 0 C16.67 1.32 16.34 2.64 16 4 C15.43152344 3.91621094 14.86304688 3.83242187 14.27734375 3.74609375 C9.23364455 3.08089803 4.99705931 3.0431163 0 4 C0 2.68 0 1.36 0 0 Z " fill="#424242" transform="translate(147,171)"/>
<path d="M0 0 C1.32 0 2.64 0 4 0 C1.10933941 9.59453303 1.10933941 9.59453303 -2 13 C-2.66 12.67 -3.32 12.34 -4 12 C-3.45660208 7.43545749 -2.20536179 4.0271824 0 0 Z " fill="#35CEA8" transform="translate(106,117)"/>
<path d="M0 0 C1.48693359 0.00386719 1.48693359 0.00386719 3.00390625 0.0078125 C3.99261719 0.00523438 4.98132813 0.00265625 6 0 C8.56640625 0.1328125 8.56640625 0.1328125 10.56640625 1.1328125 C10.23640625 2.4528125 9.90640625 3.7728125 9.56640625 5.1328125 C7.96123528 5.04547674 6.35718963 4.93729026 4.75390625 4.8203125 C3.41392578 4.73330078 3.41392578 4.73330078 2.046875 4.64453125 C-0.73963375 4.06967669 -1.67495129 3.3121269 -3.43359375 1.1328125 C-2.43359375 0.1328125 -2.43359375 0.1328125 0 0 Z " fill="#1B4D59" transform="translate(88.43359375,46.8671875)"/>
<path d="M0 0 C0.74958984 0.05220703 1.49917969 0.10441406 2.27148438 0.15820312 C4.11887082 0.28763784 5.96574371 0.42436518 7.8125 0.5625 C7.8125 1.5525 7.8125 2.5425 7.8125 3.5625 C6.760625 3.376875 5.70875 3.19125 4.625 3 C1.12703229 2.59859387 -0.83936227 2.80916901 -4.1875 3.5625 C-6.52051986 3.60074623 -8.85461508 3.60824284 -11.1875 3.5625 C-11.1875 2.5725 -11.1875 1.5825 -11.1875 0.5625 C-7.35939179 -0.71353607 -3.95274893 -0.30033987 0 0 Z " fill="#414242" transform="translate(76.1875,171.4375)"/>
<path d="M0 0 C0.33 1.32 0.66 2.64 1 4 C0.01 4.33 -0.98 4.66 -2 5 C-1.01 5 -0.02 5 1 5 C1 5.66 1 6.32 1 7 C-2.3 7 -5.6 7 -9 7 C-9.33 5.68 -9.66 4.36 -10 3 C-6.91190305 1.23537317 -5.76687864 1 -2 1 C-1.34 0.67 -0.68 0.34 0 0 Z " fill="#555758" transform="translate(46,141)"/>
<path d="M0 0 C1 1 1 1 1.0625 3.5625 C1.041875 4.366875 1.02125 5.17125 1 6 C0.67 4.68 0.34 3.36 0 2 C-0.99 2 -1.98 2 -3 2 C-3.33 3.32 -3.66 4.64 -4 6 C-4 4.68 -4 3.36 -4 2 C-4.66 2 -5.32 2 -6 2 C-6 3.32 -6 4.64 -6 6 C-6.66 6 -7.32 6 -8 6 C-8.33 5.67 -8.66 5.34 -9 5 C-11.05396726 5.40929986 -11.05396726 5.40929986 -13 6 C-13 4.35 -13 2.7 -13 1 C-12.67 1.66 -12.34 2.32 -12 3 C-11.34 3 -10.68 3 -10 3 C-9.67 2.34 -9.34 1.68 -9 1 C-5.78419562 -0.07193479 -3.36629251 -0.14636054 0 0 Z " fill="#5B5C5F" transform="translate(62,142)"/>
<path d="M0 0 C4.62 0 9.24 0 14 0 C14 0.99 14 1.98 14 3 C10 3 6 3 2 3 C1.67 5.31 1.34 7.62 1 10 C0.67 10 0.34 10 0 10 C0 6.7 0 3.4 0 0 Z " fill="#36DEAF" transform="translate(124,117)"/>
<path d="M0 0 C10.375 0 10.375 0 15 1 C15.33 1.99 15.66 2.98 16 4 C13.54159395 4.02691685 11.08348118 4.04679802 8.625 4.0625 C7.92632812 4.07087891 7.22765625 4.07925781 6.5078125 4.08789062 C1.2265625 4.11328125 1.2265625 4.11328125 -1 3 C-0.67 2.01 -0.34 1.02 0 0 Z " fill="#3E3E3E" transform="translate(19,171)"/>
<path d="M0 0 C2.475 0.495 2.475 0.495 5 1 C7.42857143 7.28571429 7.42857143 7.28571429 6 11 C4.078125 10.2890625 4.078125 10.2890625 2 9 C1.171875 6.8359375 1.171875 6.8359375 0.75 4.375 C0.60046875 3.55773437 0.4509375 2.74046875 0.296875 1.8984375 C0.19890625 1.27195312 0.1009375 0.64546875 0 0 Z " fill="#31C3B2" transform="translate(142,117)"/>
<path d="M0 0 C-0.33 1.32 -0.66 2.64 -1 4 C-5.29 3.34 -9.58 2.68 -14 2 C-9.19904877 -2.80095123 -6.13969764 -2.42732232 0 0 Z " fill="#2DC1BE" transform="translate(103,45)"/>
<path d="M0 0 C1.65 0.33 3.3 0.66 5 1 C5.38218767 2.65614657 5.71395102 4.32457024 6 6 C5 7 5 7 2.4375 7.0625 C1.2309375 7.0315625 1.2309375 7.0315625 0 7 C-0.66 5.68 -1.32 4.36 -2 3 C-1.34 2.01 -0.68 1.02 0 0 Z " fill="#6D6E6F" transform="translate(103,169)"/>
<path d="M0 0 C0.66 0.33 1.32 0.66 2 1 C2 5.62 2 10.24 2 15 C1.67 15 1.34 15 1 15 C0.67 13.35 0.34 11.7 0 10 C-0.99 10.495 -0.99 10.495 -2 11 C-2 7.7 -2 4.4 -2 1 C-1.34 0.67 -0.68 0.34 0 0 Z " fill="#2BC2C9" transform="translate(73,70)"/>
<path d="M0 0 C3.14624993 -0.26218749 4.61837017 -0.24754367 7.3125 1.5 C8.1478125 2.2425 8.1478125 2.2425 9 3 C8.67 4.32 8.34 5.64 8 7 C7.34 7 6.68 7 6 7 C5.67 6.34 5.34 5.68 5 5 C3.68 5 2.36 5 1 5 C0.67 5.66 0.34 6.32 0 7 C0 4.69 0 2.38 0 0 Z " fill="#545658" transform="translate(67,141)"/>
<path d="M0 0 C1.258125 -0.04125 2.51625 -0.0825 3.8125 -0.125 C4.52019531 -0.14820313 5.22789063 -0.17140625 5.95703125 -0.1953125 C8 0 8 0 11 2 C11.1875 4.625 11.1875 4.625 11 7 C10.67 5.68 10.34 4.36 10 3 C9.34 3 8.68 3 8 3 C8 4.32 8 5.64 8 7 C7.34 7 6.68 7 6 7 C6 5.02 6 3.04 6 1 C5.34 1 4.68 1 4 1 C4 2.98 4 4.96 4 7 C3.34 7 2.68 7 2 7 C2 5.02 2 3.04 2 1 C1.34 0.67 0.68 0.34 0 0 Z " fill="#5A5C5D" transform="translate(7,141)"/>
<path d="M0 0 C1.65 0 3.3 0 5 0 C5 2.64 5 5.28 5 8 C3.35 8 1.7 8 0 8 C0 5.36 0 2.72 0 0 Z " fill="#801318" transform="translate(9,169)"/>
<path d="M0 0 C4.29 0 8.58 0 13 0 C13.33 0.99 13.66 1.98 14 3 C9.38 3.33 4.76 3.66 0 4 C0 2.68 0 1.36 0 0 Z " fill="#404042" transform="translate(121,171)"/>
<path d="M0 0 C0.99 0.66 1.98 1.32 3 2 C2.67 3.65 2.34 5.3 2 7 C0.35 7 -1.3 7 -3 7 C-3.33 5.35 -3.66 3.7 -4 2 C-2.68 2 -1.36 2 0 2 C0 1.34 0 0.68 0 0 Z " fill="#D16A60" transform="translate(96,169)"/>
<path d="M0 0 C0.33 0.99 0.66 1.98 1 3 C1.99 2.34 2.98 1.68 4 1 C6.48046875 0.8046875 6.48046875 0.8046875 9.1875 0.875 C10.08855469 0.89304688 10.98960937 0.91109375 11.91796875 0.9296875 C12.60503906 0.95289063 13.29210937 0.97609375 14 1 C14 1.99 14 2.98 14 4 C9.38 4 4.76 4 0 4 C0 2.68 0 1.36 0 0 Z " fill="#26AAC9" transform="translate(124,131)"/>
<path d="M0 0 C0 0.33 0 0.66 0 1 C-1.15628906 1.14695312 -1.15628906 1.14695312 -2.3359375 1.296875 C-3.33882812 1.44640625 -4.34171875 1.5959375 -5.375 1.75 C-6.37273438 1.88921875 -7.37046875 2.0284375 -8.3984375 2.171875 C-11.12778213 2.73454677 -11.12778213 2.73454677 -12.2578125 4.9765625 C-12.50273438 5.64429688 -12.74765625 6.31203125 -13 7 C-14.5 8.625 -14.5 8.625 -16 10 C-16.66 10.66 -17.32 11.32 -18 12 C-17.5132738 7.72270913 -16.42203651 5.97941484 -13.125 3.25 C-12.42632812 2.65703125 -11.72765625 2.0640625 -11.0078125 1.453125 C-7.11805211 -1.36203233 -4.51838758 -0.90367752 0 0 Z " fill="#28A28B" transform="translate(69,26)"/>
<path d="M0 0 C1.32 0 2.64 0 4 0 C3.67 1.32 3.34 2.64 3 4 C-0.3 4.33 -3.6 4.66 -7 5 C-6.67 3.68 -6.34 2.36 -6 1 C-3.03 1.495 -3.03 1.495 0 2 C0 1.34 0 0.68 0 0 Z " fill="#2D343B" transform="translate(19,21)"/>
<path d="M0 0 C1.65 0 3.3 0 5 0 C6.42944945 2.35438733 7.08661261 3.48032433 6.625 6.25 C6.41875 6.8275 6.2125 7.405 6 8 C5.01 8 4.02 8 3 8 C2.01 5.36 1.02 2.72 0 0 Z " fill="#35D1AC" transform="translate(90,117)"/>
<path d="M0 0 C3.27481575 0.97359387 4.76205109 1.69066641 6.875 4.4375 C8 7 8 7 7 10 C5.85073734 9.04578192 4.70569459 8.08647955 3.5625 7.125 C2.92441406 6.59132813 2.28632812 6.05765625 1.62890625 5.5078125 C0 4 0 4 -1 2 C-0.67 1.34 -0.34 0.68 0 0 Z " fill="#1A4159" transform="translate(104,42)"/>
<path d="M0 0 C0.38218767 1.65614657 0.71395102 3.32457024 1 5 C-0.58272601 6.58272601 -2.38034003 6.34735747 -4.5625 6.5625 C-5.80193359 6.68818359 -5.80193359 6.68818359 -7.06640625 6.81640625 C-8.02353516 6.90728516 -8.02353516 6.90728516 -9 7 C-3.34042553 0 -3.34042553 0 0 0 Z " fill="#1C605F" transform="translate(78,41)"/>
<path d="M0 0 C0.99 0 1.98 0 3 0 C4.35439668 2.70879335 4.06501451 5.00933268 4 8 C2.35 7.67 0.7 7.34 -1 7 C-1.04254356 5.00045254 -1.04080783 2.99958364 -1 1 C-0.67 0.67 -0.34 0.34 0 0 Z " fill="#313A42" transform="translate(176,32)"/>
<path d="M0 0 C1.2065625 0.0309375 1.2065625 0.0309375 2.4375 0.0625 C2.7675 1.7125 3.0975 3.3625 3.4375 5.0625 C2.4475 5.0625 1.4575 5.0625 0.4375 5.0625 C0.4375 4.4025 0.4375 3.7425 0.4375 3.0625 C-0.2225 3.0625 -0.8825 3.0625 -1.5625 3.0625 C-1.5625 4.3825 -1.5625 5.7025 -1.5625 7.0625 C-2.2225 7.0625 -2.8825 7.0625 -3.5625 7.0625 C-3.60504356 5.06295254 -3.60330783 3.06208364 -3.5625 1.0625 C-2.5625 0.0625 -2.5625 0.0625 0 0 Z " fill="#28959B" transform="translate(114.5625,168.9375)"/>
<path d="M0 0 C-9.8380744 6.19693654 -9.8380744 6.19693654 -14.6875 5.375 C-15.8321875 4.694375 -15.8321875 4.694375 -17 4 C-17 3.67 -17 3.34 -17 3 C-16.32453125 2.87882812 -15.6490625 2.75765625 -14.953125 2.6328125 C-13.61507812 2.38144531 -13.61507812 2.38144531 -12.25 2.125 C-11.36828125 1.96257812 -10.4865625 1.80015625 -9.578125 1.6328125 C-6.999048 1.11072659 -6.999048 1.11072659 -4.859375 -0.1328125 C-3 -1 -3 -1 0 0 Z " fill="#162736" transform="translate(90,90)"/>
<path d="M0 0 C3.3 0 6.6 0 10 0 C10 1.32 10 2.64 10 4 C7.69 4 5.38 4 3 4 C2.67 3.01 2.34 2.02 2 1 C1.34 0.67 0.68 0.34 0 0 Z " fill="#3F3F40" transform="translate(135,171)"/>
<path d="M0 0 C1.32 0.66 2.64 1.32 4 2 C3.67 3.32 3.34 4.64 3 6 C1.35 5.67 -0.3 5.34 -2 5 C-1.125 1.125 -1.125 1.125 0 0 Z " fill="#4F4F52" transform="translate(146,142)"/>
<path d="M0 0 C1.85776765 3.13498292 2.20140476 5.37471432 2 9 C0.68 9 -0.64 9 -2 9 C-2.25 3.375 -2.25 3.375 0 0 Z " fill="#28B3C6" transform="translate(116,126)"/>
<path d="M0 0 C1.43739513 -0.02712066 2.87493863 -0.04645067 4.3125 -0.0625 C5.51326172 -0.07990234 5.51326172 -0.07990234 6.73828125 -0.09765625 C9 0 9 0 12 1 C12 1.66 12 2.32 12 3 C8.04 3 4.08 3 0 3 C0 2.01 0 1.02 0 0 Z " fill="#464644" transform="translate(36,171)"/>
<path d="M0 0 C1.32 0.33 2.64 0.66 4 1 C4 2.32 4 3.64 4 5 C2.35 5.33 0.7 5.66 -1 6 C-1.33 5.01 -1.66 4.02 -2 3 C-1.34 2.01 -0.68 1.02 0 0 Z " fill="#2F343B" transform="translate(144,88)"/>
<path d="M0 0 C-0.9977758 2.99332739 -1.7522025 3.94766315 -4 6 C-4.99 5.67 -5.98 5.34 -7 5 C-6.67 3.35 -6.34 1.7 -6 0 C-3 -1 -3 -1 0 0 Z " fill="#30B3AB" transform="translate(158,123)"/>
<path d="M0 0 C3.63 0 7.26 0 11 0 C10.01 0.495 10.01 0.495 9 1 C9 1.66 9 2.32 9 3 C5.625 3.1875 5.625 3.1875 2 3 C1.34 2.01 0.68 1.02 0 0 Z " fill="#2FDBBB" transform="translate(84,34)"/>
<path d="M0 0 C3.63 0 7.26 0 11 0 C11 0.66 11 1.32 11 2 C3.57142857 3.28571429 3.57142857 3.28571429 0 2 C0 1.34 0 0.68 0 0 Z " fill="#414143" transform="translate(53,172)"/>
<path d="M0 0 C0.66 0.66 1.32 1.32 2 2 C1.625 4.625 1.625 4.625 1 7 C0.01 6.67 -0.98 6.34 -2 6 C-2.6875 3.9375 -2.6875 3.9375 -3 2 C-2.01 1.34 -1.02 0.68 0 0 Z " fill="#31B9B5" transform="translate(97,123)"/>
<path d="M0 0 C0.99 0.33 1.98 0.66 3 1 C3 2.65 3 4.3 3 6 C1.35 5.67 -0.3 5.34 -2 5 C-1.125 1.125 -1.125 1.125 0 0 Z " fill="#5A5C5E" transform="translate(106,142)"/>
<path d="M0 0 C1.65 0.33 3.3 0.66 5 1 C4.67 1.99 4.34 2.98 4 4 C1.69 4 -0.62 4 -3 4 C-2.34 3.67 -1.68 3.34 -1 3 C-0.67 2.01 -0.34 1.02 0 0 Z " fill="#343537" transform="translate(15,128)"/>
<path d="M0 0 C1.2065625 0.0309375 1.2065625 0.0309375 2.4375 0.0625 C2.1075 1.3825 1.7775 2.7025 1.4375 4.0625 C-0.2125 4.0625 -1.8625 4.0625 -3.5625 4.0625 C-3.5625 0.08689024 -3.5625 0.08689024 0 0 Z " fill="#7D7F7F" transform="translate(106.5625,171.9375)"/>
<path d="M0 0 C-0.75 4.75 -0.75 4.75 -3 7 C-3.66 6.67 -4.32 6.34 -5 6 C-5 4.68 -5 3.36 -5 2 C-2 0 -2 0 0 0 Z " fill="#33C2B8" transform="translate(107,123)"/>
<path d="M0 0 C3.63 0 7.26 0 11 0 C10.67 0.66 10.34 1.32 10 2 C7.35139573 2.59355614 4.70802678 2.74209269 2 3 C1.34 2.01 0.68 1.02 0 0 Z " fill="#233F53" transform="translate(102,107)"/>
<path d="M0 0 C1.65 0 3.3 0 5 0 C5.33 1.32 5.66 2.64 6 4 C3.03 3.505 3.03 3.505 0 3 C0 2.01 0 1.02 0 0 Z " fill="#3C3B3C" transform="translate(165,171)"/>
<path d="M0 0 C2.31 0 4.62 0 7 0 C6.67 1.32 6.34 2.64 6 4 C4.68 3.67 3.36 3.34 2 3 C2 2.34 2 1.68 2 1 C1.34 0.67 0.68 0.34 0 0 Z " fill="#3C3C3C" transform="translate(157,171)"/>
<path d="M0 0 C0.99 0.66 1.98 1.32 3 2 C2.67 3.32 2.34 4.64 2 6 C0.68 5.67 -0.64 5.34 -2 5 C-2 3.68 -2 2.36 -2 1 C-1.34 0.67 -0.68 0.34 0 0 Z " fill="#5C5E60" transform="translate(166,142)"/>
<path d="M0 0 C1.32 0 2.64 0 4 0 C4 1.65 4 3.3 4 5 C2.68 5 1.36 5 0 5 C0 3.35 0 1.7 0 0 Z " fill="#3A424B" transform="translate(150,69)"/>
<path d="M0 0 C2.31 0.33 4.62 0.66 7 1 C7.33 1.99 7.66 2.98 8 4 C6.02 4.33 4.04 4.66 2 5 C2 3.68 2 2.36 2 1 C1.34 0.67 0.68 0.34 0 0 Z " fill="#1F5E5D" transform="translate(71,52)"/>
<path d="M0 0 C2.64 0.33 5.28 0.66 8 1 C7.67 1.99 7.34 2.98 7 4 C4.69 3.67 2.38 3.34 0 3 C0 2.01 0 1.02 0 0 Z " fill="#3F3F40" transform="translate(172,171)"/>
<path d="M0 0 C1.65 0.33 3.3 0.66 5 1 C4.67 1.99 4.34 2.98 4 4 C2.35 4.33 0.7 4.66 -1 5 C-0.67 3.35 -0.34 1.7 0 0 Z " fill="#57595B" transform="translate(78,142)"/>
<path d="M0 0 C2.475 0.495 2.475 0.495 5 1 C5.33 2.65 5.66 4.3 6 6 C5.34 5.67 4.68 5.34 4 5 C4 4.34 4 3.68 4 3 C3.01 3.33 2.02 3.66 1 4 C0.67 2.68 0.34 1.36 0 0 Z " fill="#38CEA6" transform="translate(142,117)"/>
<path d="M0 0 C1.32 0 2.64 0 4 0 C4 1.32 4 2.64 4 4 C2.35 4 0.7 4 -1 4 C-0.67 2.68 -0.34 1.36 0 0 Z " fill="#373E47" transform="translate(147,50)"/>
<path d="M0 0 C2 3 2 3 1.625 5.1875 C1.41875 5.785625 1.2125 6.38375 1 7 C-1.475 6.01 -1.475 6.01 -4 5 C-3.67 4.34 -3.34 3.68 -3 3 C-2.34 3 -1.68 3 -1 3 C-0.67 2.01 -0.34 1.02 0 0 Z " fill="#353639" transform="translate(47,141)"/>
<path d="M0 0 C1.65 0 3.3 0 5 0 C4.34 1.98 3.68 3.96 3 6 C2.01 5.34 1.02 4.68 0 4 C0 2.68 0 1.36 0 0 Z " fill="#37CFA6" transform="translate(167,117)"/>
<path d="M0 0 C-1.39332574 3.36720387 -2.9789286 4.9859524 -6 7 C-6 4 -6 4 -4.125 1.8125 C-2 0 -2 0 0 0 Z " fill="#1B504E" transform="translate(71,53)"/>
<path d="M0 0 C0.33 0.66 0.66 1.32 1 2 C1.33 1.34 1.66 0.68 2 0 C2.66 0 3.32 0 4 0 C4 1.65 4 3.3 4 5 C2.35 4.67 0.7 4.34 -1 4 C-0.67 2.68 -0.34 1.36 0 0 Z " fill="#636465" transform="translate(20,143)"/>
</svg>
